<svg viewBox="0 0 56.968 56.968" xmlns="http://www.w3.org/2000/svg" xmlns:xlink="http://www.w3.org/1999/xlink" id="Capa_1" overflow="hidden"><g><path d="M55.506 48.055 44.313 36.863 42.886 38.289 38.037 33.606C40.52 30.157 42 25.941 42 21.377 42 9.798 32.579 0.377 21 0.377 9.421 0.377 0 9.798 0 21.377 0 32.956 9.421 42.377 21 42.377 25.854 42.377 30.317 40.706 33.878 37.929L38.645 42.532 37.244 43.933 48.436 55.125C49.38 56.069 50.635 56.589 51.971 56.589 53.307 56.589 54.562 56.069 55.506 55.125 57.455 53.177 57.455 50.004 55.506 48.055ZM2 21.377C2 10.9 10.523 2.377 21 2.377 31.477 2.377 40 10.9 40 21.377 40 25.838 38.444 29.937 35.861 33.182 35.556 33.566 35.231 33.93 34.9 34.288 34.8 34.396 34.706 34.509 34.603 34.614 34.288 34.939 33.956 35.241 33.622 35.539 33.45 35.693 33.288 35.857 33.11 36.004L33.061 36.045C29.778 38.749 25.575 40.376 21 40.376 10.523 40.377 2 31.854 2 21.377ZM54.092 53.712C52.959 54.845 50.983 54.845 49.85 53.712L40.072 43.934 41.499 42.507 35.415 36.632C35.476 36.574 35.53 36.507 35.591 36.449 35.884 36.165 36.161 35.867 36.437 35.567 36.555 35.438 36.684 35.321 36.799 35.189L42.913 41.093 44.314 39.691 54.092 49.469C55.262 50.639 55.262 52.542 54.092 53.712Z" stroke="#FFFFFF" fill="#FFFFFF"/><path d="M38 21.377C38 12.003 30.374 4.377 21 4.377 11.626 4.377 4 12.003 4 21.377 4 30.751 11.626 38.377 21 38.377 30.374 38.377 38 30.751 38 21.377ZM21 36.377C12.729 36.377 6 29.648 6 21.377 6 13.106 12.729 6.377 21 6.377 29.271 6.377 36 13.106 36 21.377 36 29.648 29.271 36.377 21 36.377Z" stroke="#FFFFFF" fill="#FFFFFF"/></g><g></g><g></g><g></g><g></g><g></g><g></g><g></g><g></g><g></g><g></g><g></g><g></g><g></g><g></g><g></g></svg>